<svg width="34" height="35" viewBox="0 0 34 35" fill="none" xmlns="http://www.w3.org/2000/svg">
<g clip-path="url(#clip0_992_8488)">
<path d="M28.7903 27.8606L26.1641 30.4644L30.5358 34.7985L33.162 32.1948L28.7903 27.8606Z" fill="white"/>
<path d="M27.8906 26.9571L28.7903 27.849L29.6823 26.9647C29.913 26.6597 29.8592 26.2252 29.5516 25.9889L27.8214 24.2507C29.69 19.5088 27.3216 14.1647 22.5386 12.3121C17.7556 10.4596 12.3652 12.8076 10.4966 17.5495C8.62797 22.2914 10.9964 27.6356 15.7794 29.4881C17.9555 30.3267 20.3624 30.3267 22.5386 29.4881L24.2918 31.2263C24.5379 31.5236 24.9762 31.5694 25.2761 31.333L26.1604 30.4563L25.2607 29.5643L27.8906 26.9571ZM19.1398 27.6432C15.3718 27.6432 12.3267 24.6166 12.3267 20.8887C12.3267 17.1607 15.3795 14.1342 19.1398 14.1342C22.9 14.1342 25.9528 17.1607 25.9528 20.8887C25.9528 24.6166 22.9 27.6432 19.1398 27.6432Z" fill="white"/>
<path d="M27.8919 26.96L25.2656 29.5637L26.1682 30.4586L28.7945 27.8549L27.8919 26.96Z" fill="white"/>
<path d="M18.8318 21.5062H19.4547L20.3774 17.1989H17.9014L18.8318 21.5062Z" fill="white"/>
<path d="M19.1394 24.5785C19.6533 24.5785 20.0699 24.1655 20.0699 23.656C20.0699 23.1466 19.6533 22.7336 19.1394 22.7336C18.6256 22.7336 18.209 23.1466 18.209 23.656C18.209 24.1655 18.6256 24.5785 19.1394 24.5785Z" fill="white"/>
<path d="M15.0101 30.4868C13.7721 29.9608 12.6571 29.206 11.7036 28.2531C11.5575 28.1082 11.4344 27.9634 11.3037 27.8185L12.1496 33.6582C12.2803 34.5121 13.0877 35.0991 13.949 34.9695C14.7102 34.8551 15.2793 34.2071 15.287 33.4371C15.287 33.3914 15.287 33.3457 15.287 33.2923L15.0101 30.4868Z" fill="white"/>
<path d="M16.7712 10.7188L16.3559 9.68959C15.7946 8.29447 14.4258 7.37201 12.9033 7.37201H6.7823C5.25974 7.37201 3.89867 8.28684 3.32963 9.68959L0.107656 17.6715C0.0384484 17.8469 0 18.0298 0 18.2128C0 19.0056 0.638243 19.646 1.43028 19.6536C2.02239 19.6536 2.56066 19.303 2.77597 18.7617L5.50581 12.2892V21.5062L4.42157 33.3152C4.42157 33.3609 4.42157 33.4066 4.42157 33.46C4.42926 34.3215 5.14439 35.0152 6.02102 35.0076C6.78999 35 7.44361 34.4358 7.56664 33.6811L9.00461 23.7018C8.74317 22.787 8.61244 21.8416 8.60475 20.8963C8.60475 16.0324 11.9959 11.8242 16.7712 10.7264V10.7188Z" fill="white"/>
<path d="M9.85071 7.37966C11.9062 7.37966 13.5725 5.72766 13.5725 3.68983C13.5725 1.65199 11.9062 0 9.85071 0C7.79522 0 6.12891 1.65199 6.12891 3.68983C6.12891 5.72766 7.79522 7.37966 9.85071 7.37966Z" fill="white"/>
</g>
<defs>
<clipPath id="clip0_992_8488">
<rect width="33.1579" height="35" fill="white"/>
</clipPath>
</defs>
</svg>
