<svg width="27" height="26" viewBox="0 0 27 26" fill="none" xmlns="http://www.w3.org/2000/svg">
<path d="M4.33659 13.0054H1.66992L13.6699 1.00543L25.6699 13.0054H23.0033M4.33659 13.0054V22.3388C4.33659 23.046 4.61754 23.7243 5.11764 24.2244C5.61773 24.7245 6.29601 25.0054 7.00326 25.0054H20.3366C21.0438 25.0054 21.7221 24.7245 22.2222 24.2244C22.7223 23.7243 23.0033 23.046 23.0033 22.3388V13.0054" stroke="#C6CEDD" stroke-width="2" stroke-linecap="round" stroke-linejoin="round"/>
<path d="M9.66992 25.0054V17.0054C9.66992 16.2982 9.95087 15.6199 10.451 15.1198C10.9511 14.6197 11.6293 14.3387 12.3366 14.3387H15.0033C15.7105 14.3387 16.3888 14.6197 16.8889 15.1198C17.389 15.6199 17.6699 16.2982 17.6699 17.0054V25.0054" stroke="#C6CEDD" stroke-width="2" stroke-linecap="round" stroke-linejoin="round"/>
</svg>
