<svg width="23" height="24" viewBox="0 0 23 24" fill="none" xmlns="http://www.w3.org/2000/svg">
<path fill-rule="evenodd" clip-rule="evenodd" d="M15.08 21.4791C15.0802 22.1165 14.8395 22.7304 14.4061 23.1977C13.9727 23.665 13.3787 23.9513 12.7431 23.9991L12.5537 24.0054H10.0274C9.39 24.0056 8.77612 23.7649 8.30877 23.3315C7.84143 22.8982 7.55516 22.3042 7.50736 21.6686L7.50104 21.4791H15.08ZM11.2905 0.00543213C13.5831 0.0053943 15.7861 0.895824 17.4348 2.48889C19.0835 4.08197 20.049 6.25312 20.1276 8.54438L20.1326 8.84754V13.6021L22.4341 18.205C22.5345 18.4059 22.5848 18.628 22.5806 18.8526C22.5764 19.0771 22.5178 19.2972 22.4099 19.4942C22.302 19.6911 22.148 19.8589 21.961 19.9833C21.7741 20.1077 21.5597 20.1849 21.3364 20.2084L21.1911 20.216H1.38988C1.16525 20.216 0.943947 20.1616 0.744942 20.0574C0.545937 19.9532 0.375163 19.8023 0.247253 19.6177C0.119344 19.433 0.0381126 19.2201 0.0105213 18.9972C-0.01707 18.7742 0.00980106 18.5479 0.0888317 18.3376L0.146937 18.205L2.44841 13.6021V8.84754C2.44841 6.50247 3.37999 4.25344 5.0382 2.59522C6.69642 0.937008 8.94544 0.00543213 11.2905 0.00543213ZM11.2905 2.53175C9.66298 2.53184 8.09831 3.16022 6.9228 4.28584C5.74728 5.41147 5.05168 6.94743 4.98104 8.57343L4.97473 8.84754V13.6021C4.97474 13.9153 4.91649 14.2259 4.80294 14.5179L4.7082 14.7326L3.23031 17.6896H19.352L17.8741 14.7313C17.7339 14.4513 17.6469 14.1476 17.6177 13.8357L17.6063 13.6021V8.84754C17.6063 7.17249 16.9409 5.56604 15.7565 4.3816C14.572 3.19716 12.9656 2.53175 11.2905 2.53175Z" fill="#C6CEDD"/>
</svg>
