<svg width="25" height="24" viewBox="0 0 25 24" fill="none" xmlns="http://www.w3.org/2000/svg">
<path fill-rule="evenodd" clip-rule="evenodd" d="M16.3635 8.73272C16.3635 9.89002 15.9038 10.9999 15.0854 11.8183C14.2671 12.6366 13.1572 13.0964 11.9999 13.0964C10.8426 13.0964 9.73265 12.6366 8.91431 11.8183C8.09597 10.9999 7.63623 9.89002 7.63623 8.73272C7.63623 7.57541 8.09597 6.4655 8.91431 5.64716C9.73265 4.82882 10.8426 4.36908 11.9999 4.36908C13.1572 4.36908 14.2671 4.82882 15.0854 5.64716C15.9038 6.4655 16.3635 7.57541 16.3635 8.73272ZM14.1817 8.73272C14.1817 9.31137 13.9518 9.86632 13.5426 10.2755C13.1335 10.6847 12.5785 10.9145 11.9999 10.9145C11.4212 10.9145 10.8663 10.6847 10.4571 10.2755C10.0479 9.86632 9.81805 9.31137 9.81805 8.73272C9.81805 8.15406 10.0479 7.59911 10.4571 7.18994C10.8663 6.78077 11.4212 6.5509 11.9999 6.5509C12.5785 6.5509 13.1335 6.78077 13.5426 7.18994C13.9518 7.59911 14.1817 8.15406 14.1817 8.73272Z" fill="#C6CEDD"/>
<path fill-rule="evenodd" clip-rule="evenodd" d="M12 0.00543213C5.37273 0.00543213 0 5.37816 0 12.0054C0 18.6327 5.37273 24.0054 12 24.0054C18.6273 24.0054 24 18.6327 24 12.0054C24 5.37816 18.6273 0.00543213 12 0.00543213ZM2.18182 12.0054C2.18182 14.2854 2.95964 16.3843 4.26327 18.0513C5.1788 16.849 6.35989 15.8746 7.71429 15.2043C9.06869 14.534 10.5597 14.1859 12.0709 14.1873C13.5625 14.1858 15.0348 14.5249 16.3756 15.1786C17.7163 15.8324 18.8901 16.7835 19.8076 17.9596C20.7529 16.7199 21.3893 15.2729 21.6642 13.7384C21.9392 12.2039 21.8448 10.626 21.3889 9.13523C20.933 7.64445 20.1286 6.28367 19.0423 5.16547C17.9561 4.04728 16.6192 3.20382 15.1422 2.7049C13.6653 2.20597 12.0908 2.06591 10.5489 2.29631C9.00711 2.52671 7.54232 3.12095 6.27575 4.02985C5.00918 4.93876 3.97725 6.1362 3.26534 7.5231C2.55343 8.91 2.18202 10.4465 2.18182 12.0054ZM12 21.8236C9.74613 21.827 7.56029 21.0516 5.81236 19.6287C6.51592 18.6215 7.45237 17.7992 8.54203 17.2316C9.63169 16.6641 10.8423 16.3682 12.0709 16.3691C13.2842 16.3681 14.4802 16.6566 15.5596 17.2106C16.6389 17.7646 17.5706 18.5682 18.2771 19.5545C16.5156 21.0237 14.2937 21.8268 12 21.8236Z" fill="#C6CEDD"/>
</svg>
