<svg width="26" height="25" viewBox="0 0 26 25" fill="none" xmlns="http://www.w3.org/2000/svg">
<path d="M23.0235 8.62871L22.5842 8.38382C22.1975 8.1847 21.8722 7.8843 21.643 7.5147C21.6226 7.48229 21.6034 7.44747 21.565 7.38025C21.3063 6.96475 21.1807 6.48018 21.2048 5.99134L21.212 5.48115C21.2265 4.66485 21.2337 4.2543 21.1184 3.88696C21.0165 3.5601 20.8458 3.25884 20.6178 3.00344C20.3609 2.71533 20.0044 2.50886 19.2901 2.09831L18.6971 1.75618C17.9865 1.34683 17.6299 1.14155 17.2518 1.06352C16.9177 0.994356 16.5727 0.997221 16.2398 1.07193C15.8641 1.15596 15.5124 1.36724 14.8101 1.78739L14.8065 1.78979L14.3815 2.04309C14.3143 2.0839 14.2795 2.10311 14.2459 2.12231C13.9122 2.30838 13.54 2.41042 13.1571 2.42242C13.1187 2.42483 13.0791 2.42483 13.001 2.42483L12.845 2.42362C12.4619 2.41156 12.0873 2.30783 11.7526 2.12111C11.719 2.10311 11.6865 2.0827 11.6193 2.04188L11.1908 1.78499C10.4837 1.36003 10.1296 1.14876 9.75143 1.06352C9.4173 0.988658 9.07101 0.986202 8.73586 1.05632C8.35652 1.13555 8.00118 1.34203 7.28932 1.75498L7.28572 1.75618L6.69991 2.0959L6.6939 2.10071C5.98804 2.50886 5.63391 2.71533 5.37942 3.00224C5.15263 3.25721 4.98279 3.55759 4.88124 3.88336C4.76719 4.2519 4.7732 4.66245 4.7876 5.48355L4.79601 5.99254C4.79601 6.07057 4.79961 6.10898 4.79841 6.1462C4.79207 6.58232 4.66716 7.0085 4.43707 7.37905C4.39746 7.44627 4.37945 7.47989 4.35904 7.5111C4.15664 7.83782 3.87875 8.11118 3.54875 8.30819L3.4143 8.38382L2.98094 8.62391C2.25827 9.02365 1.89694 9.22413 1.63524 9.50983C1.40257 9.76173 1.22656 10.0605 1.11905 10.3862C0.999008 10.7547 0.999008 11.1664 1.00021 11.9923L1.00261 12.6682C1.00381 13.4881 1.00621 13.8974 1.12746 14.2636C1.23452 14.5872 1.40925 14.8843 1.64004 15.1351C1.90174 15.4184 2.25947 15.6177 2.97614 16.0162L3.40589 16.2551C3.47912 16.2959 3.51633 16.3151 3.55115 16.3367C3.92733 16.5623 4.23456 16.8865 4.43947 17.2743L4.5199 17.4183C4.72267 17.8012 4.81808 18.2317 4.79601 18.6644L4.7876 19.153C4.7732 19.9765 4.76719 20.3894 4.88244 20.758C4.98447 21.0845 5.15494 21.3858 5.38302 21.6415C5.63992 21.9296 5.99765 22.1349 6.71071 22.5466L7.30373 22.8888C8.01559 23.2981 8.37092 23.5034 8.74906 23.5814C9.08315 23.6505 9.42814 23.6477 9.76103 23.573C10.138 23.489 10.4897 23.2777 11.1944 22.8551L11.6193 22.6006C11.9853 22.365 12.4086 22.2334 12.8438 22.2201H13.1559C13.5376 22.2321 13.9122 22.3366 14.2483 22.5226L14.3587 22.5886L14.8101 22.8599C15.5184 23.2849 15.8713 23.4962 16.2494 23.5802C16.5834 23.6558 16.9297 23.6591 17.265 23.5898C17.6431 23.5106 18.0009 23.3029 18.7127 22.89L19.3069 22.5454C20.0128 22.1349 20.3669 21.9296 20.6214 21.6427C20.8495 21.387 21.0176 21.0869 21.1196 20.7616C21.2337 20.3954 21.2277 19.9885 21.2132 19.1794L21.2036 18.6512C21.1798 18.1631 21.3054 17.6794 21.5638 17.2647L21.6418 17.1326C21.8442 16.8059 22.1221 16.5326 22.4521 16.3355L22.5842 16.2623L22.5866 16.2611L23.0199 16.021C23.7426 15.6201 24.1039 15.4208 24.3668 15.1351C24.5997 14.883 24.775 14.5829 24.8818 14.2588C25.0018 13.8926 25.0018 13.4821 24.9994 12.6658L24.997 11.9767C24.9958 11.1568 24.9946 10.7463 24.8734 10.3802C24.7658 10.0569 24.5906 9.76024 24.3596 9.50983C24.0991 9.22653 23.7414 9.02725 23.0259 8.62991L23.0235 8.62871Z" stroke="#C6CEDD" stroke-width="2" stroke-linecap="round" stroke-linejoin="round"/>
<path d="M8.19824 12.3225C8.19824 13.596 8.70414 14.8173 9.60465 15.7178C10.5052 16.6183 11.7265 17.1242 13 17.1242C14.2735 17.1242 15.4949 16.6183 16.3954 15.7178C17.2959 14.8173 17.8018 13.596 17.8018 12.3225C17.8018 11.0489 17.2959 9.8276 16.3954 8.9271C15.4949 8.02659 14.2735 7.52069 13 7.52069C11.7265 7.52069 10.5052 8.02659 9.60465 8.9271C8.70414 9.8276 8.19824 11.0489 8.19824 12.3225Z" stroke="#C6CEDD" stroke-width="2" stroke-linecap="round" stroke-linejoin="round"/>
</svg>
